<?xml version="1.0" encoding="UTF-8"?>
<svg id="_레이어_2" data-name="레이어 2" xmlns="http://www.w3.org/2000/svg" viewBox="0 0 23.72 25.69">
  <defs>
    <style>
      .cls-1 {
        fill: #875198;
      }

      .cls-2 {
        fill: #fff;
      }
    </style>
  </defs>
  <g id="_레이어_1-2" data-name="레이어 1">
    <g>
      <path class="cls-1" d="m0,19.27h2.96v-8.99c0-1.78.62-3.36,1.85-4.74,1.24-1.38,2.84-2.29,4.82-2.71v-.9c0-.54.22-.99.65-1.37s.96-.56,1.58-.56,1.14.19,1.58.56c.43.37.65.83.65,1.37v.9c1.98.43,3.58,1.33,4.82,2.71s1.85,2.96,1.85,4.74v8.99h2.96v2.57H0"/>
      <path class="cls-1" d="m11.86,25.69c-.82,0-1.51-.25-2.09-.75s-.87-1.11-.87-1.81h5.93c0,.71-.29,1.31-.87,1.81s-1.28.75-2.09.75Z"/>
      <path class="cls-2" d="m17.79,10.28v8.99H5.93v-8.99c0-1.41.58-2.62,1.73-3.64,1.16-1,2.56-1.5,4.2-1.5s3.02.5,4.18,1.5c1.16,1.01,1.75,2.22,1.75,3.64Z"/>
    </g>
  </g>
</svg>