<?xml version="1.0" encoding="UTF-8"?>
<svg id="_레이어_2" data-name="레이어 2" xmlns="http://www.w3.org/2000/svg" viewBox="0 0 25.69 23.72">
  <defs>
    <style>
      .cls-1 {
        fill: #875198;
      }
    </style>
  </defs>
  <g id="_레이어_1-2" data-name="레이어 1">
    <g>
      <path class="cls-1" d="m25.69,12.86c.03.65-.31.98-.88,1.07-.45.09-.9.12-1.36.12H1.47C.31,14.05,0,13.72,0,12.5v-1.4c0-.83.28-1.22,1.05-1.4.28-.06.57-.03.85-.03,7.35-.03,14.67-.03,21.99-.03.2,0,.4,0,.59.03.82.09,1.1.36,1.16,1.25.06.65.06,1.28.06,1.93Z"/>
      <path class="cls-1" d="m25.64,1.4c.03.65.06,1.28,0,1.93-.03.6-.37.92-.93.95-.65.03-1.27.06-1.89.06H1.87C.11,4.34.03,4.26,0,2.41-.03.3.26,0,2.32,0h21.85c1.07.03,1.36.3,1.47,1.4Z"/>
      <path class="cls-1" d="m25.66,22.53c-.06.77-.34,1.07-1.07,1.1-.62.06-1.27.06-1.89.06h-9.98v.03H1.9C.11,23.72.03,23.63,0,21.72v-.42c0-1.55.4-1.96,1.89-1.96h22.1c1.27,0,1.53.24,1.64,1.61.06.51.08,1.04.03,1.58Z"/>
    </g>
  </g>
</svg>