<?xml version="1.0" encoding="UTF-8"?>
<svg id="_레이어_2" data-name="레이어 2" xmlns="http://www.w3.org/2000/svg" viewBox="0 0 23.68 24.8">
  <defs>
    <style>
      .cls-1 {
        fill: #875198;
      }
    </style>
  </defs>
  <g id="_레이어_1-2" data-name="레이어 1">
    <path class="cls-1" d="m11.71,12.4c-1.53-.03-2.85-.6-3.96-1.72-1.18-1.19-1.86-2.89-1.83-4.61.03-1.6.58-2.99,1.64-4.15C8.7.68,10.33-.03,11.97,0c1.53.03,2.85.6,3.96,1.72,1.18,1.19,1.86,2.89,1.83,4.61-.03,1.6-.58,2.99-1.64,4.15-1.14,1.24-2.76,1.95-4.4,1.92ZM.48,24.8c-.27,0-.48-.23-.48-.51v-3.84c0-.88.22-1.69.65-2.42s1.01-1.3,1.72-1.69c1.53-.8,3.08-1.4,4.66-1.8s3.18-.6,4.81-.6,3.23.2,4.81.6,3.13,1,4.66,1.8c.72.39,1.29.95,1.72,1.69s.65,1.54.65,2.42v4.34H.48Zm2.48-3.1h17.76v-1.24c0-.28-.07-.54-.2-.78s-.31-.41-.54-.54c-1.33-.7-2.68-1.22-4.03-1.57s-2.73-.52-4.11-.52-2.75.17-4.11.52-2.7.87-4.03,1.57c-.22.13-.4.31-.54.54s-.2.49-.2.78v1.24Zm8.88-12.4c.81,0,1.51-.3,2.09-.91s.87-1.34.87-2.19-.29-1.58-.87-2.19-1.28-.91-2.09-.91-1.51.3-2.09.91-.87,1.34-.87,2.19.29,1.58.87,2.19c.58.61,1.28.91,2.09.91Z"/>
  </g>
</svg>