<?xml version="1.0" encoding="UTF-8"?>
<svg id="_레이어_2" data-name="레이어 2" xmlns="http://www.w3.org/2000/svg" xmlns:xlink="http://www.w3.org/1999/xlink" viewBox="0 0 45 46">
  <defs>
    <style>
      .cls-1 {
        fill: #fff;
        filter: url(#outer-glow-1);
      }
    </style>
    <filter id="outer-glow-1" filterUnits="userSpaceOnUse">
      <feOffset dx="0" dy="0"/>
      <feGaussianBlur result="blur" stdDeviation="3.51"/>
      <feFlood flood-color="#6f319b" flood-opacity=".59"/>
      <feComposite in2="blur" operator="in"/>
      <feComposite in="SourceGraphic"/>
    </filter>
  </defs>
  <g id="_레이어_1-2" data-name="레이어 1">
    <path class="cls-1" d="m32.57,35.24l-8.3-8.3c-.66.53-1.42.94-2.27,1.25s-1.77.46-2.73.46c-2.39,0-4.42-.83-6.08-2.49s-2.49-3.68-2.49-6.08.83-4.42,2.49-6.08,3.68-2.49,6.08-2.49,4.42.83,6.08,2.49c1.66,1.66,2.49,3.68,2.49,6.08,0,.97-.15,1.88-.46,2.73s-.72,1.61-1.25,2.27l8.3,8.3-1.84,1.84Zm-13.31-9.22c1.65,0,3.05-.58,4.2-1.73s1.73-2.55,1.73-4.2-.58-3.05-1.73-4.2-2.55-1.73-4.2-1.73-3.05.58-4.2,1.73-1.73,2.55-1.73,4.2.58,3.05,1.73,4.2c1.15,1.15,2.55,1.73,4.2,1.73Z"/>
  </g>
</svg>