<?xml version="1.0" encoding="UTF-8"?>
<svg id="_레이어_2" data-name="레이어 2" xmlns="http://www.w3.org/2000/svg" viewBox="0 0 349.18 75.1">
  <defs>
    <style>
      .cls-1 {
        fill: #2a3967;
      }

      .cls-2 {
        fill: #fff2de;
      }

      .cls-3 {
        fill: #ff7121;
      }

      .cls-4 {
        fill: #ffcea8;
      }

      .cls-5 {
        fill: #1e3865;
      }

      .cls-6 {
        fill: #ff912b;
      }

      .cls-7 {
        fill: #a8ccff;
        opacity: .3;
      }

      .cls-8 {
        fill: #9bd399;
      }

      .cls-9 {
        fill: #e8f2fa;
      }

      .cls-10 {
        fill: #fff3e9;
      }

      .cls-11 {
        fill: #f6aa71;
      }

      .cls-12 {
        fill: #ffdcbb;
      }

      .cls-13 {
        fill: #a9c2ff;
      }

      .cls-14 {
        fill: #2d3554;
      }

      .cls-15 {
        fill: #25468f;
      }

      .cls-16 {
        fill: #f99352;
      }

      .cls-17 {
        fill: #ffd592;
      }

      .cls-18 {
        fill: #73b471;
      }

      .cls-19 {
        fill: #ffebd8;
      }

      .cls-20 {
        fill: #ffe5e5;
      }

      .cls-21 {
        fill: #c8dffd;
        opacity: .4;
      }

      .cls-22 {
        font-family: PyeongChangPeace-Light, 'PyeongChang Peace';
        font-size: 16.8px;
        font-weight: 300;
      }

      .cls-22, .cls-23 {
        fill: #2c284c;
      }

      .cls-24 {
        fill: #ffdeaf;
      }

      .cls-25 {
        fill: #8bca88;
      }

      .cls-23 {
        font-family: Pretendard-Thin, Pretendard;
        font-size: 8.89px;
        font-weight: 200;
      }

      .cls-26 {
        fill: #8eaff1;
      }

      .cls-27 {
        fill: #fddbba;
      }

      .cls-28 {
        fill: #97b7f8;
      }

      .cls-29 {
        fill: #ffae73;
      }

      .cls-30 {
        fill: #ffba53;
      }

      .cls-31 {
        fill: #f7cc4d;
      }

      .cls-32 {
        fill: #77c36a;
      }
    </style>
  </defs>
  <g id="_레이어_1-2" data-name="레이어 1">
    <path class="cls-20" d="m349.18,4.43v66.26c-.49.56-.26,1.18-1.42,1.7-3.35,1.49-7.97,2.56-15.42,2.62h-.37c-.23,0-.47,0-.65.05H18.13c-2.14-.11-4.47-.06-6.45-.3-6.31-.79-10.83-1.92-11.41-3.76-.07-.24-.26-.48-.26-.73v-.06s0-.07.02-.11V5.02s-.02-.07,0-.11c-.02-.02-.02-.04-.02-.06C-.11,2.76,4.03,1.29,11.63.35,14.14.05,16.91.04,19.66.02c.07,0,.14,0,.21,0,.21,0,.44,0,.65,0h308.27c.26,0,.51,0,.77,0h.21c6.27-.02,11.41.57,15.56,1.78,2.35.69,3.38,1.47,3.63,2.34v.14h0c0,.07.05.13.21.17Z"/>
    <g>
      <path class="cls-9" d="m23.74,74.73c.03-.55-11.39-18.38.56-35.74,11.95-17.35,25.93-8,28.8-20.21,3.58-15.26,19.81-16.68,30.22-11.91,10.41,4.77,29.91-4.19,45.88,3.41,15.97,7.6,4.1,29.6,10.14,32.77,6.04,3.16,17.08,13.17,9.16,31.49l-124.76.19Z"/>
      <g>
        <path class="cls-7" d="m76.47,39.78s-1.12-7.77-5.72-12.31c-4.6-4.55-9.03-5.58-9.16-3.81-.13,1.77,7.14,4.4,10.09,8.32,2.95,3.92,4.79,7.8,4.79,7.8Z"/>
        <path class="cls-7" d="m75.52,41.94s-1.31-5.57-4.94-8.59c-3.63-3.01-6.92-3.48-6.9-2.19.02,1.3,5.47,2.75,7.86,5.41,2.39,2.66,3.98,5.37,3.98,5.37Z"/>
      </g>
      <path class="cls-21" d="m39.96,35.69c.66-4.71,8.53-4.26,8.53-4.26,0,0,6.23,7.32,7.78,7.31,1.54,0-4.11-7.3-4.11-7.3,2.91-.66,10.87,2,10.87,2,0,0,.7,9.37,2.2,8.98s-1.05-8.26-1.05-8.26c2.96.49,6.04,3.48,6.04,3.48,4.01,4.99-2.61,9.88-2.61,9.88,0,0,.31,3.24,2.78,6.69,0,0,0,0,0,0,0,0,.54.63,1.14,1.73l-.78.1c-.09-.2-.19-.39-.29-.58,0,0,0,0,0,0,0,0,0,0,0,0-.07-.11-.17-.27-.29-.47,0,0,0,0,0,0,0,0,0,0,0,0-.3-.43-.5-.76-.63-.99,0,0,0,0,0,0-.9-1.37-2.16-3.14-2.89-3.45,0,0,.07-.13.12-.38-.04.12-.08.25-.12.38-.97,3.02-7.56,4.33-11.36,4.04-3.8-.29-2.32-1.54-.54-3.49,1.78-1.95,6.01-2.03,7.17-2.85,1.15-.82-.74-1.26-3.18-.76-2.45.5-3.37,3.13-7.31,4.01-3.94.88-7.93-6.23-7.93-6.23,2.86.51,7.61-1.64,7.68-2.61.07-.97-7.23.05-8.41-.09-1.18-.14-3.46-2.17-2.8-6.88Z"/>
      <path class="cls-7" d="m70.64,72.65s-.03.93.27,2.33h-12.22c.29-.24.64-.52,1.01-.83,1.67-1.4,5.16-1,6.19-1.54,1.03-.55-.47-1.11-2.53-.97-2.06.14-3.11,2.19-6.44,2.48-3.33.29-5.81-5.99-5.81-5.99,2.29.73,6.42-.5,6.58-1.29.16-.79-5.93-.76-6.88-1.01-.95-.25-2.59-2.16-1.53-5.95,1.06-3.79,7.47-2.55,7.47-2.55,0,0,4.3,6.69,5.57,6.86,1.27.17-2.56-6.44-2.56-6.44,2.46-.22,8.69,2.84,8.69,2.84,0,0-.46,7.76.81,7.61,1.27-.15.06-6.89.06-6.89,2.37.73,4.56,3.52,4.56,3.52,2.73,4.54-3.23,7.81-3.23,7.81Z"/>
      <path class="cls-21" d="m117.27,62.34c-1.13.43-8.59,1.21-8.29,2.16.31.95,5.53,1.9,8.23.7,0,0-2.2,8.02-6.31,8.11-4.11.09-5.67-2.28-8.21-2.17-2.54.1-4.3,1-2.96,1.53,1.34.53,5.55-.43,7.78,1.06.33.22.65.42.94.62.18.12.34.23.5.34h-14.96c0-.12,0-.24,0-.34-.01-.63-.07-.99-.07-.99,0,0-7.74-3.21-5.01-9.13,0,0,2.31-3.71,5.11-4.92,0,0-.58,8.41,1,8.42,1.57.01-.03-9.42-.03-9.42,0,0,7.21-4.58,10.25-4.65,0,0-3.8,8.6-2.27,8.22,1.53-.38,5.89-9.14,5.89-9.14,0,0,7.67-2.38,9.48,2.12,1.81,4.5.05,7.06-1.08,7.49Z"/>
      <path class="cls-7" d="m111.48,18.94c-.96-3.57-6.98-2.46-6.98-2.46,0,0-4.09,6.24-5.28,6.39-1.19.15,2.46-6.02,2.46-6.02-2.3-.22-8.17,2.6-8.17,2.6,0,0,.37,7.28-.82,7.13-1.19-.15,0-6.46,0-6.46-2.23.67-4.31,3.27-4.31,3.27-2.6,4.23,2.97,7.36,2.97,7.36,0,0,.07,2.53-1.49,5.42h0s-.35.53-.71,1.44h.61c.05-.16.1-.32.17-.47,0,0,0,0,0,0,0,0,0,0,0,0,.04-.09.1-.23.18-.39,0,0,0,0,0,0,0,0,0,0,0,0,.19-.36.31-.63.39-.83,0,0,0,0,0,0,.56-1.14,1.36-2.63,1.89-2.94,0,0-.07-.09-.13-.28.04.09.08.18.13.28,1.04,2.23,6.24,2.6,9.14,2.01,2.9-.59,1.64-1.41.08-2.74-1.56-1.33-4.83-.98-5.79-1.5s.45-1.04,2.38-.89c1.93.15,2.9,2.08,6.02,2.38,3.12.3,5.5-5.57,5.5-5.57-2.15.67-6.02-.52-6.17-1.27-.15-.74,5.57-.67,6.46-.89.89-.22,2.45-2,1.49-5.57Z"/>
      <g>
        <path class="cls-18" d="m32.87,74.65s-3.03-2.92-1.82-4.11c1.21-1.19,1.82,4.11,1.82,4.11,0,0,.19-.18,0,0Z"/>
        <path class="cls-18" d="m33.61,70.8c1.48-.06-.73,3.86-.73,3.86,0,0-.75-3.8.73-3.86Z"/>
      </g>
      <g>
        <path class="cls-8" d="m118.89,46.84s.61-2.78,1.73-2.51c1.12.28-1.73,2.51-1.73,2.51,0,0,.17.04,0,0Z"/>
        <path class="cls-8" d="m121.38,45.9c.56.83-2.49.94-2.49.94,0,0,1.93-1.77,2.49-.94Z"/>
      </g>
      <g>
        <path class="cls-8" d="m75.92,27.96s-3.72-1.98-2.88-3.45c.84-1.48,2.88,3.45,2.88,3.45,0,0,.13-.22,0,0Z"/>
        <path class="cls-8" d="m75.57,24.05c1.41-.47.35,3.91.35,3.91,0,0-1.76-3.44-.35-3.91Z"/>
      </g>
      <g>
        <path class="cls-8" d="m38.72,44.73s-1.8,3.27-3.1,2.51c-1.3-.76,3.1-2.51,3.1-2.51,0,0-.19-.12,0,0Z"/>
        <path class="cls-8" d="m35.25,44.99c-.39-1.25,3.47-.26,3.47-.26,0,0-3.08,1.51-3.47.26Z"/>
      </g>
      <g>
        <g>
          <path class="cls-6" d="m116.65,24.95c-.24.2-1.24.41-1.3.35s.35-1.01.59-1.21c.24-.2.59-.16.79.07.2.24.16.59-.07.79Z"/>
          <path class="cls-6" d="m115.32,23.92c.14.27.15,1.3.07,1.34-.08.04-.92-.55-1.06-.82-.14-.27-.04-.61.24-.76.27-.14.61-.04.76.24Z"/>
          <path class="cls-6" d="m114.07,24.81c.31-.03,1.27.34,1.28.42,0,.09-.85.66-1.15.69-.31.03-.58-.19-.62-.5-.03-.31.19-.58.5-.62Z"/>
          <path class="cls-6" d="m114.53,26.25c.08-.3.76-1.06.85-1.04.09.02.31,1.02.24,1.32-.08.3-.38.48-.68.4-.3-.08-.48-.38-.4-.68Z"/>
          <path class="cls-6" d="m116.04,26.42c-.25-.18-.7-1.11-.65-1.18.05-.07,1.07.1,1.31.28.25.18.3.54.11.78-.18.25-.54.3-.78.11Z"/>
        </g>
        <path class="cls-27" d="m115.58,25.24c0-.1-.08-.18-.18-.18-.1,0-.18.08-.18.18,0,.1.08.18.18.18.1,0,.18-.08.18-.18Z"/>
      </g>
      <path class="cls-27" d="m102.31,54.71c0-10.96-8.88-19.84-19.84-19.84s-19.84,8.88-19.84,19.84c0,4.53,4.9,15.54,6.43,18.87.27.59.86.97,1.51.97h23.97c.65,0,1.24-.38,1.51-.96,1.51-3.25,6.26-13.89,6.26-18.88Z"/>
      <path class="cls-6" d="m100.45,54.71c0,4.49-3.66,12.63-5.4,15.97-.61,1.18-4.01.79-4.59.79l-16.31-.19c-.58,0-3.38.94-3.62.41-1.38-3-5.78-12.9-5.78-16.98,0-3.27.88-6.34,2.42-8.98,0,0,5.75-.8,11.94,0,6.19.8,14.64-1.33,19.27.62h0c1.32,2.49,2.07,5.34,2.07,8.36Z"/>
      <rect class="cls-3" x="76.16" y="31.21" width="12.66" height="4.72" rx=".56" ry=".56"/>
      <rect class="cls-6" x="77.34" y="31.21" width="11.48" height="4.72" rx=".56" ry=".56"/>
      <path class="cls-3" d="m83.98,20.84c0,.65-.42,1.21-1.01,1.41,0,0,0,0,0,0-.15.05-.31.08-.48.08-.82,0-1.49-.67-1.49-1.49,0-.59.34-1.1.84-1.34.2-.1.42-.15.65-.15.18,0,.35.03.5.09.58.21.99.76.99,1.41Z"/>
      <path class="cls-6" d="m83.98,20.84c0,.65-.42,1.21-1.01,1.41,0,0,0,0,0,0-.77-.23-1.34-.98-1.34-1.86,0-.33.08-.63.21-.9.2-.1.42-.15.65-.15.18,0,.35.03.5.09.58.21.99.76.99,1.41Z"/>
      <path class="cls-3" d="m85.34,31.21h-5.69c-.31,0-.57-.27-.54-.59.01-.14.08-.26.18-.35.1-.09.23-.14.37-.14.81,0,1.47-.66,1.47-1.47v-1.65h2.71v1.65c0,.81.66,1.47,1.47,1.47.27,0,.51.19.55.45.06.34-.21.63-.53.63Z"/>
      <path class="cls-6" d="m85.34,31.21h-4.57c.55-.46.91-1.2.91-2.04v-2.17h2.17v1.65c0,.81.66,1.47,1.47,1.47.27,0,.51.19.55.45.06.34-.21.63-.53.63Z"/>
      <path class="cls-28" d="m102.06,31.63l-9.05-5.36c-.78-.46-1.67-.71-2.58-.71h-7.94v-.99h7.94c1.08,0,2.15.29,3.08.84l9.05,5.36-.5.85Z"/>
      <path class="cls-3" d="m98.87,30.5h0c-.21-.14-.27-.42-.14-.63l.71-1.11c.14-.21.42-.27.63-.14h0c.21.14.27.42.14.63l-.71,1.11c-.14.21-.42.27-.63.14Z"/>
      <path class="cls-3" d="m85.36,25.08c0,1.39-.99,2.54-2.29,2.81-.18.04-.37.06-.57.06-1.58,0-2.86-1.28-2.86-2.86s1.28-2.86,2.86-2.86c.19,0,.39.02.57.06,1.31.26,2.29,1.42,2.29,2.81Z"/>
      <path class="cls-6" d="m85.36,25.08c0,1.39-.99,2.54-2.29,2.81-1.31-.26-2.29-1.42-2.29-2.81s.99-2.54,2.29-2.81c1.31.26,2.29,1.42,2.29,2.81Z"/>
      <path class="cls-3" d="m81.67,28.61s0-.66,1.04-.67l-1.24-.34.2,1.01Z"/>
      <path class="cls-3" d="m118.26,42.86c-2.86,4.09-8.5,5.08-12.59,2.21-.89-.62-1.62-1.37-2.21-2.21h-.01s-.02-.05-.04-.07l-3.52-5.22h0c-1.41-1.67-1.87-3.96-1.23-6.04.19-.62.49-1.23.88-1.8,1.68-2.4,4.71-3.3,7.35-2.4h0s5.7,1.45,5.7,1.45c.35.07.69.15,1.04.26h0c.84.27,1.65.67,2.41,1.2,2.28,1.6,3.6,4.06,3.82,6.64.17,2.04-.34,4.15-1.6,5.95Z"/>
      <path class="cls-6" d="m119.86,36.91c-.07.14-.14.27-.21.4h0c-.18.33-.38.64-.6.94-.05.07-.1.14-.16.21-.36.47-.77.89-1.21,1.27-.05.04-.1.09-.16.13-.38.31-.78.6-1.21.84-.05.03-.1.06-.16.09-.16.09-.32.17-.48.25-.14.07-.29.13-.44.2-.1.04-.21.08-.31.12-.05.02-.1.04-.16.06-.39.14-.8.25-1.21.34-.05.01-.1.02-.16.03-.2.04-.41.07-.61.09h0c-.09,0-.17.02-.26.03-.11.01-.23.02-.34.02-.05,0-.1,0-.16,0-.4.01-.8,0-1.21-.04-.02,0-.04,0-.07,0-.03,0-.06,0-.09-.01-.04,0-.07,0-.11-.01-.42-.06-.85-.14-1.27-.26-.05-.02-.1-.03-.16-.05,0,0,0,0,0,0-.06-.02-.11-.03-.17-.05h0c-.21-.07-.42-.15-.63-.23-.14-.06-.27-.12-.41-.18-.05-.02-.1-.05-.16-.07-.01,0-.03-.01-.04-.02-.05-.02-.1-.05-.15-.07-.36-.18-.7-.39-1.02-.62-.02-.01-.03-.02-.05-.04-.04-.02-.07-.05-.11-.08,0,0-.02-.01-.02-.02-.24-.18-.48-.37-.7-.57h0s-.01-.01-.01-.01c-.02-.02-.03-.03-.05-.05l-.3-.28-.11-.11-.02-.02-.16-.15-.71-.67-.11-.11-.61-.58-.16-.15-.11-.11-.11-.11-.88-.83-.1-.09-.02-.02-.14-.13-.91-.85-.11-.11-.02-.02h0c-.05-.04-.11-.08-.16-.13-.05-.04-.11-.09-.16-.13-.2-.17-.38-.35-.55-.54-.04-.04-.07-.08-.1-.12-.2-.23-.39-.48-.55-.73-.05-.08-.11-.17-.16-.26,0,0,0,0,0,0-.03-.05-.05-.09-.08-.14-.21-.38-.37-.78-.5-1.19-.02-.06-.03-.11-.05-.17-.03-.1-.05-.19-.07-.29.16-.53.4-1.04.71-1.53.05-.08.1-.16.16-.24,0,0,.01-.02.02-.03.35-.49.75-.92,1.19-1.28.05-.04.1-.08.16-.12.38-.29.78-.54,1.21-.73.05-.02.1-.05.16-.07.39-.17.8-.3,1.21-.39.05-.01.1-.02.16-.03.05,0,.11-.02.16-.03h0c.09-.01.18-.03.27-.04.34-.04.67-.05,1.01-.04.05,0,.1,0,.16,0,.19.01.38.03.57.06h0c.06,0,.13.02.19.03.15.03.3.06.45.1.05.01.1.03.16.04.11.03.21.06.31.1h0s.47.12.47.12l.18.05.25.06.16.04.98.25.18.05h.05s.16.05.16.05l1.38.35.07.02.09.02.09.02,1.12.29.16.04.11.03.18.05.09.02c.28.05.55.12.83.2.05.02.1.03.16.05.02,0,.03.01.05.02h0c.08.03.16.05.24.08h0c.06.02.11.04.16.06.25.09.5.2.75.32.05.02.1.05.16.08.09.05.19.1.28.15.05.03.1.05.14.08.23.13.46.28.68.43.04.03.08.06.12.09.05.04.1.08.16.12.07.05.14.11.21.16.04.03.08.07.12.1.31.26.61.54.88.84,0,0,0,0,0,0,.03.04.07.07.1.11.02.02.04.04.06.06.25.29.48.59.69.9.03.04.06.09.09.13.16.25.3.5.44.76.05.11.11.21.16.32,0,0,0,.01,0,.02.02.05.05.1.07.15.18.41.33.83.45,1.26.02.06.03.11.04.17.12.47.2.95.24,1.43,0,0,0,0,0,.01Z"/>
      <g>
        <g>
          <g>
            <path class="cls-3" d="m105.21,27.02v12.12l-.16-.15v-11.98c.05,0,.1,0,.16,0Z"/>
            <path class="cls-3" d="m106.58,27.25v13.04s-.03-.02-.05-.04c-.04-.02-.07-.05-.11-.08v-12.97c.05.01.1.03.16.04Z"/>
            <path class="cls-3" d="m107.94,27.61v13.46c-.05-.02-.1-.05-.16-.07v-13.43l.16.04Z"/>
            <path class="cls-3" d="m109.15,27.92l.16.04v13.63c-.05-.02-.1-.03-.16-.05v-13.62Z"/>
          </g>
          <g>
            <path class="cls-3" d="m110.84,28.36v13.53s-.04,0-.07,0c-.03,0-.06,0-.09-.01v-13.55l.07.02.09.02Z"/>
            <path class="cls-3" d="m112.21,28.7v13.21c-.05,0-.1,0-.16,0v-13.26l.16.04Z"/>
            <path class="cls-3" d="m113.57,29.05v12.7c-.05.01-.1.02-.16.03v-12.77c.05.02.1.03.16.05Z"/>
            <path class="cls-3" d="m114.94,29.61v11.74c-.05.02-.1.04-.16.06v-11.88c.05.02.1.05.16.08Z"/>
          </g>
          <g>
            <path class="cls-3" d="m116.32,30.47v10.22c-.05.03-.1.06-.16.09v-10.43c.05.04.1.08.16.12Z"/>
            <path class="cls-3" d="m117.69,31.63v8.09c-.05.04-.1.09-.16.13v-8.28s.07.07.1.11l.06-.05Z"/>
            <path class="cls-3" d="m118.89,33.54c.05.11.11.21.16.32v4.38c-.05.07-.1.14-.16.21v-4.91Z"/>
          </g>
          <g>
            <path class="cls-3" d="m99.52,29.77v3.81c-.05-.08-.11-.17-.16-.26v-3.32c.05-.08.1-.16.16-.24Z"/>
            <path class="cls-3" d="m100.89,28.33v6.77c-.05-.04-.11-.09-.16-.13v-6.51c.05-.04.1-.08.16-.12Z"/>
            <path class="cls-3" d="m102.25,27.53v8.83l-.02-.02-.14-.13v-8.61c.05-.02.1-.05.16-.07Z"/>
            <path class="cls-3" d="m103.61,27.11v10.52l-.16-.15v-10.35c.05-.01.1-.02.16-.03Z"/>
          </g>
        </g>
        <g>
          <g>
            <polygon class="cls-3" points="110.93 28.38 110.84 28.46 110.69 28.61 109.3 29.91 109.15 30.06 107.94 31.19 107.78 31.34 106.58 32.48 106.42 32.62 105.21 33.76 105.05 33.91 103.61 35.26 103.46 35.41 102.35 36.45 102.25 36.36 102.23 36.34 102.25 36.33 103.46 35.19 103.61 35.05 105.05 33.69 105.21 33.55 106.42 32.41 106.58 32.26 107.78 31.13 107.94 30.98 109.15 29.84 109.3 29.7 110.69 28.4 110.75 28.33 110.84 28.36 110.93 28.38"/>
            <polygon class="cls-3" points="112.32 28.73 112.5 28.78 112.21 29.05 112.05 29.2 110.84 30.34 110.69 30.48 109.3 31.78 109.15 31.93 107.94 33.07 107.78 33.21 106.58 34.35 106.42 34.5 105.21 35.63 105.05 35.78 103.61 37.13 103.46 37.28 103.35 37.39 103.23 37.28 103.46 37.07 103.61 36.92 105.05 35.57 105.21 35.42 106.42 34.28 106.58 34.14 107.78 33 107.94 32.85 109.15 31.72 109.3 31.57 110.69 30.27 110.84 30.12 112.05 28.99 112.21 28.84 112.32 28.73"/>
            <path class="cls-3" d="m114.03,29.21l-.46.43-.16.15-1.21,1.14-.16.15-1.21,1.14-.16.15-1.38,1.3-.16.15-1.21,1.14-.16.15-1.21,1.14-.16.15-1.21,1.14-.16.15-.71.67-.11-.11.83-.78.16-.15,1.21-1.14.16-.15,1.21-1.14.16-.15,1.21-1.14.16-.15,1.38-1.3.16-.15,1.21-1.14.16-.15,1.21-1.14.16-.15.3-.28h0c.06.02.11.04.16.06Z"/>
            <path class="cls-3" d="m115.22,29.76s.1.05.14.08l-.42.4-.16.15-1.21,1.14-.16.15-1.21,1.14-.16.15-1.21,1.14-.16.15-1.38,1.3-.16.15-1.21,1.14-.16.15-1.21,1.14-.16.15-1.08,1.01-.11-.11,1.19-1.12.16-.15,1.21-1.14.16-.15,1.21-1.14.16-.15,1.38-1.3.16-.15,1.21-1.14.16-.15,1.21-1.14.16-.15,1.21-1.14.16-.15.28-.26Z"/>
          </g>
          <g>
            <path class="cls-3" d="m116.65,30.74l-.33.31-.16.15-1.23,1.15-.16.15-1.21,1.14-.16.15-1.21,1.14-.16.15-1.21,1.14-.16.15-1.38,1.3-.16.15-1.21,1.14-.16.15-1.21,1.14-.05.05s-.07-.05-.11-.08c0,0-.02-.01-.02-.02l.02-.02.16-.15,1.21-1.14.16-.15,1.21-1.14.16-.15,1.38-1.3.16-.15,1.21-1.14.16-.15,1.21-1.14.16-.15,1.21-1.14.16-.15,1.23-1.15.16-.15.21-.19s.08.07.12.1Z"/>
            <path class="cls-3" d="m117.63,31.69l-.1.09-1.21,1.14-.16.15-1.23,1.15-.16.15-1.21,1.14-.16.15-1.21,1.14-.16.15-1.21,1.14-.16.15-1.38,1.3-.16.15-1.21,1.14-.16.15-.04.04s-.1-.05-.15-.07l.19-.18.16-.15,1.21-1.14.16-.15,1.38-1.3.16-.15,1.21-1.14.16-.15,1.21-1.14.16-.15,1.21-1.14.16-.15,1.23-1.15.16-.15,1.2-1.13h0s0,0,0,0c.03.04.07.07.1.11Z"/>
            <path class="cls-3" d="m118.37,32.65s.06.09.09.13l-.77.73-.16.15-1.21,1.14-.16.15-1.23,1.15-.16.15-1.21,1.14-.16.15-1.21,1.14-.16.15-1.21,1.14-.16.15-1.38,1.3-.16.15h0c-.06-.01-.11-.03-.17-.05l.18-.17.16-.15,1.38-1.3.16-.15,1.21-1.14.16-.15,1.21-1.14.16-.15,1.21-1.14.16-.15,1.23-1.15.16-.15,1.21-1.14.16-.15.69-.65Z"/>
            <path class="cls-3" d="m119.13,34.03l-.08.07-.16.15-1.21,1.14-.16.15-1.21,1.14-.16.15-1.23,1.15-.16.15-1.21,1.14-.16.15-1.21,1.14-.16.15-1.21,1.14-.07.06s-.06,0-.09-.01c-.04,0-.07,0-.11-.01l.11-.1.16-.15,1.21-1.14.16-.15,1.21-1.14.16-.15,1.21-1.14.16-.15,1.23-1.15.16-.15,1.21-1.14.16-.15,1.21-1.14.16-.15h0s.05.09.07.14Z"/>
          </g>
          <g>
            <path class="cls-3" d="m119.62,35.46l-.57.53-.16.15-1.21,1.14-.16.15-1.21,1.14-.16.15-1.23,1.15-.16.15-1.21,1.14-.16.15-.61.57h0c-.09,0-.17.02-.26.03l.87-.82.16-.15,1.21-1.14.16-.15,1.23-1.15.16-.15,1.21-1.14.16-.15,1.21-1.14.16-.15.52-.49c.02.06.03.11.04.17Z"/>
            <path class="cls-3" d="m119.86,36.9s0,0,0,.01c-.07.14-.14.27-.21.4h0s-.6.57-.6.57l-.16.15-1.21,1.14-.16.15-1.21,1.14-.16.15-.48.45c-.14.07-.29.13-.44.2l.91-.86.16-.15,1.21-1.14.16-.15,1.21-1.14.16-.15.81-.76Z"/>
          </g>
          <g>
            <path class="cls-3" d="m103.77,27.09h0l-.16.15-.16.15-1.21,1.14-.16.15-1.21,1.14-.16.15-1.21,1.14-.16.15-.63.59c.02.06.03.11.05.17l.58-.55.16-.15,1.21-1.14.16-.15,1.21-1.14.16-.15,1.21-1.14.16-.15.43-.4-.27.04Z"/>
            <path class="cls-3" d="m105.97,27.11l-.76.72-.16.15-1.44,1.35-.16.15-1.21,1.14-.16.15-1.21,1.14-.16.15-1.21,1.14-.16.15h0s-.05-.09-.08-.14l.08-.08.16-.15,1.21-1.14.16-.15,1.21-1.14.16-.15,1.21-1.14.16-.15,1.44-1.35.16-.15.57-.53h0c.06,0,.13.02.19.03Z"/>
            <path class="cls-3" d="m107.36,27.47l.18.05-.96.9-.16.15-1.21,1.14-.16.15-1.44,1.35-.16.15-1.21,1.14-.16.15-1.21,1.14-.16.15-.55.52s-.07-.08-.1-.12l.66-.62.16-.15,1.21-1.14.16-.15,1.21-1.14.16-.15,1.44-1.35.16-.15,1.21-1.14.16-.15.78-.73Z"/>
            <polygon class="cls-3" points="108.92 27.87 109.1 27.91 107.94 29 107.78 29.15 106.58 30.29 106.42 30.43 105.21 31.57 105.05 31.72 103.61 33.07 103.46 33.22 102.25 34.35 102.09 34.5 101.18 35.36 101.07 35.25 102.09 34.29 102.25 34.14 103.46 33 103.61 32.86 105.05 31.5 105.21 31.36 106.42 30.22 106.58 30.07 107.78 28.94 107.94 28.79 108.92 27.87"/>
          </g>
        </g>
      </g>
      <path class="cls-6" d="m69.05,43.25c-.6.49-1.89,2.48-1.89,2.48,0,0,14.94,2.52,22.16,2.1,7.22-.42,9.05-1.48,9.05-1.48,0,0-1.41-2.06-2.92-3.1,0,0-2-1.32-5.1,0-2.69,1.14-5.55-1.39-9.89-1.15-2.36.13-3.97,1.57-6.21.97-2.77-.73-4.25-.59-5.19.17Z"/>
      <g>
        <ellipse class="cls-19" cx="82.47" cy="52.98" rx="11.76" ry="9.32"/>
        <path class="cls-6" d="m82.47,61.24c-2.77,0-5.38-.86-7.34-2.41-1.97-1.56-3.05-3.63-3.05-5.84s1.08-4.28,3.05-5.84c1.96-1.55,4.57-2.41,7.34-2.41s5.38.86,7.34,2.41c1.97,1.56,3.05,3.63,3.05,5.84s-1.08,4.28-3.05,5.84c-1.96,1.55-4.57,2.41-7.34,2.41Zm0-16.3c-5.62,0-10.19,3.61-10.19,8.05s4.57,8.05,10.19,8.05,10.19-3.61,10.19-8.05-4.57-8.05-10.19-8.05Z"/>
        <g>
          <path class="cls-6" d="m74.24,51.87h.8c.47,0,.77.27.78.69,0,.46-.37.7-.81.7h-.4s0,.66,0,.66h-.36s0-2.04,0-2.04Zm.78,1.06c.27,0,.44-.15.44-.37,0-.24-.17-.36-.44-.36h-.42s0,.73,0,.73h.42Z"/>
          <path class="cls-6" d="m76.48,51.87h1.51s0,.32,0,.32h-1.15s0,.53,0,.53h1.02s0,.32,0,.32h-1.02s0,.55,0,.55h1.17s0,.32,0,.32h-1.53s0-2.04,0-2.04Z"/>
          <path class="cls-6" d="m78.72,51.87h.91c.48,0,.76.25.76.65,0,.33-.2.54-.49.62l.55.77h-.42s-.51-.71-.51-.71h-.44s0,.71,0,.71h-.36s0-2.04,0-2.04Zm.88,1.01c.26,0,.42-.13.42-.35,0-.22-.16-.34-.42-.34h-.52s0,.68,0,.68h.52Z"/>
          <path class="cls-6" d="m81.12,51.87h1.52s0,.32,0,.32h-1.16s0,.56,0,.56h1.03s0,.33,0,.33h-1.03s0,.83,0,.83h-.36s0-2.04,0-2.04Z"/>
          <path class="cls-6" d="m83.29,53.04v-1.17s.36,0,.36,0v1.16c0,.38.2.58.52.58.32,0,.51-.19.51-.57v-1.17s.36,0,.36,0v1.16c0,.61-.34.91-.87.92-.53,0-.87-.31-.87-.9Z"/>
          <path class="cls-6" d="m85.82,51.86h.38s.62.96.62.96l.62-.96h.38s0,2.04,0,2.04h-.36s0-1.46,0-1.46l-.64.96h-.01l-.64-.95v1.46s-.35,0-.35,0v-2.04Z"/>
          <path class="cls-6" d="m88.64,51.86h1.51s0,.32,0,.32h-1.15s0,.53,0,.53h1.02s0,.32,0,.32h-1.02s0,.55,0,.55h1.17s0,.32,0,.32h-1.53s0-2.04,0-2.04Z"/>
        </g>
        <g>
          <rect class="cls-3" x="77.17" y="56.13" width="10.07" height=".14"/>
          <rect class="cls-3" x="77.17" y="49.53" width="10.07" height=".14"/>
        </g>
      </g>
      <path class="cls-10" d="m92.87,39.89c.99,1.38.97,3.09-.05,3.82-1.02.73-2.65.21-3.63-1.17-.99-1.38-.97-3.09.05-3.82,1.02-.73,2.65-.21,3.63,1.17Z"/>
      <path class="cls-10" d="m87.44,39.18c.21.71-.04,1.42-.57,1.58-.53.16-1.13-.3-1.34-1.01-.21-.71.04-1.42.57-1.58.53-.16,1.13.3,1.34,1.01Z"/>
      <g>
        <path class="cls-6" d="m83.62,47.66c-.16.13-.81.27-.85.23-.04-.04.23-.66.38-.79.16-.13.39-.11.52.05.13.16.11.39-.05.52Z"/>
        <path class="cls-6" d="m82.75,46.98c.09.18.1.85.05.88-.05.03-.6-.36-.7-.54-.09-.18-.03-.4.15-.49.18-.09.4-.03.49.15Z"/>
        <path class="cls-6" d="m81.93,47.57c.2-.02.83.22.84.28,0,.06-.55.43-.76.45-.2.02-.38-.12-.4-.32-.02-.2.12-.38.32-.4Z"/>
        <path class="cls-6" d="m82.23,48.51c.05-.2.5-.7.56-.68.06.01.2.67.15.87-.05.2-.25.31-.45.26-.2-.05-.31-.25-.26-.45Z"/>
        <path class="cls-6" d="m83.22,48.62c-.16-.12-.46-.73-.42-.77.03-.05.7.06.86.18.16.12.2.35.07.51-.12.16-.35.2-.51.07Z"/>
        <path class="cls-19" d="m82.92,47.85c0-.07-.05-.12-.12-.12-.07,0-.12.05-.12.12,0,.07.05.12.12.12.07,0,.12-.05.12-.12Z"/>
      </g>
      <g>
        <path class="cls-1" d="m56.13,41.27s.07-1.14-1.37-1.34c0,0-.81-.22-1.61.59-1.05,1.07-.44,3.36-.79,3.82-.35.46-2.95-.5-2.5,2.04.26,1.46,2.34,3.86,5.02,4.09,0,0,2.22-.33,1-2.24-.33-.51-1.1-1.15-.43-2.06.14-.19.68-4.91.68-4.91Z"/>
        <path class="cls-15" d="m42.8,57.47s.02.04.03.06c.27.47.9,1.63,1.58,2.9.33.6.67,1.23.99,1.82.56,1.02,1.06,1.92,1.36,2.4.3.49.52.83.61.97h0s.03.09.03.14c-.03.43-.02.86.02,1.28.41,4.13,3.2,6.34,3.2,6.34l.83.12s-1.17-4.34-1.52-6.79c-.06-.42-.08-.75-.06-.97.06-.64-.05-1.58-.27-2.65-.38-1.91-1.08-4.26-1.69-6.14-.04-.12-1.2-4.33-1.2-4.33-.98.85-4.54,1.21-4.54,1.21,0,0-.6,1.47.63,3.66Z"/>
        <path class="cls-29" d="m54.14,47.82s-1.69-.05-1.78,1.44c-.09,1.49,1.73,7.25,2.1,7.77.68.95,3.52,3.46,3.52,3.46l.75-.42s-2.47-4.26-2.89-4.64c-.67-.6-.9-7.15-1.7-7.61Z"/>
        <path class="cls-5" d="m53.19,74.55h-3.45s-.08-.53.1-.93c.17-.38.42-.4.03-1,.22.23.92.32,1.42.25.06.1.39.76.6.91.23.16,1.23.1,1.3.76Z"/>
        <path class="cls-1" d="m42.8,57.47s.02.04.03.06c.27.47,1.74,3.19,2.43,4.46-.8-3.28-.24-6.56-.24-6.56l-2.22,2.04Z"/>
        <path class="cls-1" d="m55.66,41.07c.02-.09-1.97.9-2.07,1.01-.94,1.04-.67,2.39-.13,2.41.34,0,.28.58.28.58l3.83-1.62s-.46-2.69-1.9-2.38Z"/>
        <path class="cls-13" d="m54.37,47.66s.51.53.51,2.11c0,0-.7,1.11-2.52,1.39,0,0,1.57-3.5,2.01-3.5Z"/>
        <path class="cls-15" d="m45.49,54.07v-.65c-1.28.16-4.43-1.54-4.43-1.54,0,0-1.35.9-1.53,3.45-.09,1.25-.66,6.53-.72,8.1-.02.57-.03.98-.03,1.14,0,0,0,0,0,0,0,.05-.02.09-.05.13-.27.34-.5.7-.7,1.07-1.96,3.65-.95,8.55-.95,8.55l.45-.12s1.68-5.07,2.76-7.3c.18-.38.35-.67.49-.84.41-.5.84-1.34,1.26-2.35.8-1.92,3.44-9.66,3.44-9.66Z"/>
        <path class="cls-5" d="m39.84,74.55h-3.45s-.08-.53.1-.93c.17-.38.44-.56.38-1.02.22.23.58.48,1.08.41.06.1.39.63.6.78.23.16,1.23.1,1.3.76Z"/>
        <path class="cls-13" d="m52.13,51.89c-.46.08.08.45-.56.52-.91.1-1.85.17-2.34.36-.18.07-.5.39-.57.49-.47.56-1.06,1.68-1.06,1.68-6.01-.27-6.53-3.06-6.53-3.06,3.9-3.79,7.49-6.03,10.23-6.32.47-.05,1.06.25,1.48.44.96.43,1.59,1.66,1.59,1.66,0,0-.48,3.94-2.25,4.24Z"/>
        <path class="cls-26" d="m51.56,52.41c-.91.1-1.85.17-2.34.36-.2-3,1.21-5.26,1.21-5.26,0,0,.92,3.76,1.12,4.89Z"/>
        <path class="cls-29" d="m52.35,47.01s-2.28-.12-2.69,1.31c-.41,1.43.76,7.16,1.01,7.75.46,1.08,2.69,4.14,2.69,4.14l.82-.25s-1.49-4.69-1.82-5.15c-.52-.73.67-7.18-.01-7.8Z"/>
        <path class="cls-13" d="m49.21,50.24s2.16.4,3.51-.29c0,0,1.13-3.53-.48-3.36-1.61.17-2.56.68-2.6,1.45-.04.77-.42,2.2-.42,2.2Z"/>
        <path class="cls-29" d="m52.78,46s.64,2.37,1.59,1.66c-.03-.11.14-.45.34-.78.25-.43.55-.87.55-.87l-1.29-1.13-.08-.07c-.4.69-.78.96-1.11,1.2Z"/>
        <path class="cls-16" d="m55.26,46s-.3.44-.55.87c-.8-.5-.8-1.49-.74-2.01l1.29,1.13Z"/>
        <path class="cls-29" d="m55.29,46.57s-1.95-1.09-1.26-2.29c.69-1.2.91-2.16,2.19-1.51,1.27.64,1.25,1.24,1.12,1.7-.13.46-1.52,2.36-2.05,2.11Z"/>
        <path class="cls-1" d="m57.67,43.76c-.09-.53-.36-.59-.55-.55-.72-1.19-1.9-.73-1.9-.73-.63.79-1.54.92-1.54.92,0,0,.23.42,1.16.68.28.08.61.03.92-.07-.65.36-1.32.5-1.32.5,1.23.11,2.35-.67,2.47-.79.2.11.33.17.34.44.02.41-.21.81-.39,1.12,0,0,.95-.73.82-1.53Z"/>
        <g>
          <path class="cls-30" d="m57.22,55.99c-.17-.16-.44-.14-.59.04-3.78,4.55-3.38,11.33,1.02,15.43,4.4,4.1,11.19,4.02,15.46-.08.17-.16.17-.43,0-.59l-15.89-14.79Z"/>
          <g>
            <path class="cls-17" d="m56.83,67.53c-.26.12-.44.42-.39.66.24,1.11.89,1.97,1.7,2.73.67.63,1.36,1.17,2.27,1.39.35.08.8-.2.98-.62l3.03-7.01c.16-.38-.11-.66-.48-.48l-7.12,3.34Z"/>
            <path class="cls-17" d="m61.64,72.06c-.11.26-.05.61.12.75.82.68,1.84.96,2.85,1,.83.03,1.56-.06,2.31-.48.29-.16.43-.68.31-1.11l-2.03-7.28c-.11-.4-.46-.42-.61-.05l-2.95,7.18Z"/>
            <path class="cls-17" d="m56.55,67.21c-.26.12-.61.06-.75-.11-.7-.84-.96-1.86-1.01-2.9-.05-.86,0-1.64.42-2.42.16-.3.67-.46,1.11-.34l7.32,2c.4.11.43.47.06.63l-7.13,3.13Z"/>
            <path class="cls-17" d="m67.63,72.38c.08.27.33.53.55.52.96-.02,1.65-.14,2.5-.57.89-.45,1.45-.79,1.5-1.61.05-.78-6.28-6.05-6.28-6.05-.32-.25-.6-.07-.49.32l2.22,7.38Z"/>
            <path class="cls-17" d="m55.99,61.04c-.27-.08-.54-.33-.53-.54.04-1.06.28-1.93.82-2.7.45-.64.75-1.57,2.1-.31l5.32,5.21c.25.32.07.6-.31.49l-7.41-2.14Z"/>
          </g>
        </g>
        <path class="cls-29" d="m54.18,59.96s.11.27.26.46c.15.19.54.74.54,1,0,0-.02.12-.12.1-.1-.02-.43-.35-.6-.33,0,0-.15.44-.09.61.16.45-.07,1.02-.13,1.15-.05.13-.52-.87-.63-1.22-.07-.24-.12-.79-.1-1.23.01-.26-.24-.67-.24-.67l1.1.14Z"/>
      </g>
      <g>
        <g>
          <path class="cls-24" d="m56.88,24.28c.11.42-.22,1.82-.34,1.85-.12.03-1.07-1.05-1.18-1.47-.11-.42.15-.84.57-.95s.84.15.95.57Z"/>
          <path class="cls-24" d="m54.79,25.33c.43-.02,1.73.59,1.74.72,0,.12-1.25.83-1.68.85-.43.02-.8-.32-.81-.75-.02-.43.32-.8.75-.81Z"/>
          <path class="cls-24" d="m55.16,27.46c.14-.41,1.19-1.4,1.3-1.36.12.04.32,1.46.18,1.87-.14.41-.59.62-1,.48-.41-.14-.62-.59-.48-1Z"/>
          <path class="cls-24" d="m57.25,27.74c-.33-.28-.89-1.6-.81-1.7.08-.09,1.48.22,1.81.5.33.28.37.77.1,1.1-.28.33-.77.37-1.1.1Z"/>
          <path class="cls-24" d="m58.38,25.93c-.38.2-1.82.22-1.88.11-.06-.11.76-1.29,1.15-1.49.38-.2.86-.06,1.06.33.2.38.06.86-.33,1.06Z"/>
        </g>
        <path class="cls-6" d="m56.61,25.8c-.13-.06-.28,0-.34.12-.06.13,0,.28.12.34.13.06.28,0,.34-.12.06-.13,0-.28-.12-.34Z"/>
      </g>
      <g>
        <g>
          <path class="cls-32" d="m93.78,70.73c-1.27,0-4.46,2.91-5.15,3.54-.69.63-4.27.28-4.86.15-.09-.02-.16-.08-.18-.18-.16-.53.61-2.06,2.42-3.47,2.15-1.67,7.74-1.23,7.74-1.23,0,0,.54.49.59.84.03.2-.1.35-.55.35Z"/>
          <path class="cls-32" d="m94.33,70.38c-.16-.02-.34-.05-.53-.08-5.38-.94-10.03,4.12-10.03,4.12l-.18-.18c-.16-.53.61-2.06,2.42-3.47,2.15-1.67,7.74-1.23,7.74-1.23,0,0,.54.49.59.84Z"/>
        </g>
        <g>
          <path class="cls-32" d="m95.32,70.35c.98-.28,4.06,1.25,4.73,1.58.67.33,3.33-.73,3.76-.95.07-.04.1-.1.1-.18,0-.44-.92-1.45-2.62-2.13-2.01-.81-6.2.76-6.2.76,0,0-.3.49-.26.78.02.16.15.25.5.15Z"/>
          <path class="cls-32" d="m94.82,70.2c.12-.05.25-.11.39-.18,3.92-1.9,8.59.95,8.59.95l.1-.18c0-.44-.92-1.45-2.62-2.13-2.01-.81-6.2.76-6.2.76,0,0-.3.49-.26.78Z"/>
        </g>
        <g>
          <path class="cls-8" d="m95.37,69.59c.58-.83,3.94-1.58,4.67-1.75.73-.16,2.13-2.66,2.32-3.11.03-.07.02-.14-.04-.2-.27-.34-1.63-.54-3.37,0-2.07.64-4.34,4.49-4.34,4.49,0,0,.07.58.28.77.12.11.27.1.48-.2Z"/>
          <path class="cls-25" d="m94.89,69.79c.06-.11.12-.24.19-.38,1.85-3.94,7.28-4.67,7.28-4.67l-.04-.2c-.27-.34-1.63-.54-3.37,0-2.07.64-4.34,4.49-4.34,4.49,0,0,.07.58.28.77Z"/>
        </g>
        <path class="cls-2" d="m93.34,68.48c.14-.13-1.6-2.97-3.04-3.24-1.57-.3-3.91.12-3.84,2.3.04,1.26,4.95,2.18,5.51,1.99.57-.19,1.36-1.05,1.36-1.05Z"/>
        <path class="cls-2" d="m92.73,68.15s.29-3.05,2.4-3.45c2.11-.4,3.3-.31,3.59.49.29.81.01,2.1-.82,2.62-.83.52-3.22,1.27-3.22,1.27l-1.95-.94Z"/>
        <path class="cls-2" d="m93,70.26c-.13.18,1.83,3.96,3.29,4.27,1.59.34,3.9-.31,3.66-3.26-.14-1.71-5.12-2.76-5.67-2.49-.55.27-1.28,1.48-1.28,1.48Z"/>
        <path class="cls-2" d="m93.7,70.58s-1.03,4.01-3.19,4.12c-2.16.11-3.31-.24-3.4-1.38-.09-1.13.5-2.8,1.45-3.33.95-.53,3.47-1.05,3.47-1.05l1.68,1.64Z"/>
        <path class="cls-2" d="m92.95,67.58h.43c.57,0,1.03.46,1.03,1.03v.63c0,.57-.46,1.03-1.03,1.03h-.43c-.57,0-1.03-.46-1.03-1.03v-.63c0-.57.46-1.03,1.03-1.03Z" transform="translate(-2.05 2.86) rotate(-1.74)"/>
        <g>
          <path class="cls-4" d="m93.26,69.36l-.17-.03c.01-.07.32-1.69,1.53-2.83l.12.12c-1.16,1.1-1.47,2.72-1.48,2.74Z"/>
          <path class="cls-4" d="m93.05,69.26h-.17c.08-1.58-.95-3.41-.96-3.42l.15-.08c.04.08,1.06,1.89.98,3.51Z"/>
          <path class="cls-4" d="m92.35,69.04c-.11-1.1-1.25-2.19-1.26-2.2l.12-.12s1.2,1.14,1.31,2.31l-.17.02Z"/>
          <path class="cls-4" d="m93.38,69.77l-.16-.06c.32-.94,1.88-1.63,1.94-1.66l.07.16s-1.55.69-1.85,1.56Z"/>
          <path class="cls-4" d="m92.99,69.79c-.51-.98-1.96-1.58-1.98-1.58l.06-.16c.06.03,1.53.62,2.07,1.66l-.15.08Z"/>
          <path class="cls-4" d="m93.62,69.46c0,.2-.2.37-.45.38-.26,0-.47-.15-.47-.35,0-.2.2-.37.45-.38.26,0,.47.15.47.35Z"/>
        </g>
        <path class="cls-31" d="m92.17,66.11h0c-.1.05-.22,0-.26-.1l-.11-.25c-.05-.1,0-.22.1-.26h0c.1-.05.22,0,.26.1l.11.25c.05.1,0,.22-.1.26Z"/>
        <path class="cls-31" d="m91.44,67.05h0c-.08.08-.21.07-.28,0l-.19-.2c-.08-.08-.07-.21,0-.28h0c.08-.08.21-.07.28,0l.19.2c.08.08.07.21,0,.28Z"/>
        <path class="cls-31" d="m91.41,68.27h0c-.05.1-.17.14-.27.1l-.25-.11c-.1-.05-.14-.17-.1-.27h0c.05-.1.17-.14.27-.1l.25.11c.1.05.14.17.1.27Z"/>
        <path class="cls-31" d="m94.84,66.39h0c.08.08.08.2,0,.28l-.19.2c-.08.08-.2.08-.28,0h0c-.08-.08-.08-.2,0-.28l.19-.2c.08-.08.2-.08.28,0Z"/>
        <path class="cls-31" d="m95.5,67.99h0c.05.1,0,.22-.09.27l-.24.12c-.1.05-.22,0-.27-.09h0c-.05-.1,0-.22.09-.27l.24-.12c.1-.05.22,0,.27.09Z"/>
      </g>
      <g>
        <path class="cls-29" d="m120.29,49.27h0s-.55.41-.68.54c-.13.13-.07.13.11.16.09.02.21-.03.31-.07-.07.3-.11.61-.16.75-.07.22-.2.9.18.88.37-.02.87-.78.99-1.16.12-.38.56-.7.56-.7l-.46-.7s-.59.05-.85.31Z"/>
        <g>
          <g>
            <path class="cls-15" d="m123.22,73.29l.78.29s3.38-4.69,3.8-8.81c.06-.59.06-1.17-.03-1.71-.05-.3-.04-.61,0-.91,0,0,0,0,0,0,.03-.16.06-.34.1-.56.11-.63.26-1.49.43-2.47.4-2.26.91-5.14,1.31-7.26l-.21-.07-2.27-.73-.47-1.49-1.69-.44s-.38.74-.71,4.23c-.06.46-.12.96-.16,1.51-.13,1.67-.14,3.74.16,6.11.08.61.18,1.23.3,1.87.09.47.1,1.11.06,1.85-.17,3.37-1.41,8.61-1.41,8.61Z"/>
            <path class="cls-1" d="m124.11,54.84l3.67,7.29c.03-.16.06-.34.1-.56.11-.63.26-1.49.43-2.47.4-2.26.91-5.14,1.31-7.26l-.21-.07-2.27-.73-.47-1.49-1.69-.44s-.38.74-.71,4.23c-.06.46-.12.96-.16,1.51Z"/>
            <path class="cls-15" d="m125.72,50.04l.08-.73c1.42.38,5.22-1.06,5.22-1.06,0,0,1.38,1.21,1.2,4.12-.09,1.42-.57,8.12,0,9.38,1.93,4.29.08,12.02.08,12.02l-.71.22s-1.09-6.04-1.97-8.71c-.15-.45-.29-.81-.43-1.02-.38-.62-.74-1.63-1.06-2.83-.61-2.28-1.1-5.24-1.43-7.52-.05,0-.98-3.86-.98-3.86Z"/>
            <path class="cls-29" d="m115.51,47.62l.11.71s.05,0,.13,0c.26-.02.89-.05,1.6-.13,1.07-.11,2.34-.29,2.85-.61.77-.47,2.04-1.91,2.86-3.36.02-.04.04-.07.06-.11.43-.77.73-1.53.75-2.13.02-.37-.02-.69-.1-.97-.1-.37-.27-.65-.44-.87-.02-.04-.05-.07-.08-.1-.28-.34-.56-.48-.56-.48-.14-.06-.29.01-.45.18h0c-.13.14-.27.35-.41.61,0,0-.01.01-.01.02-.03.05-.06.11-.09.18-.01.01-.02.03-.02.04-.06.14-.13.28-.19.42-.72,1.58-1.5,3.97-2.14,4.68-.28.31-1.54.91-2.55,1.35-.72.32-1.31.55-1.31.55Z"/>
            <path class="cls-13" d="m122.39,42.81s.04.1.06.15c.62,1.33,2.05,7.01,2.05,7.01,2.06.35,6.56-.22,7.16-1.04.04-.41-.9-2.71-1.59-3.48-.09-.1-.16-.2-.23-.31-.17-.28-.28-.59-.31-.91-.14-1.28-.08-2.48-.1-3.22h0c-.13-.1-.26-.19-.39-.28-.19-.14-.35-.26-.47-.39-.13-.14-.22-.28-.23-.44,0-.12,0-.25,0-.37,0-.06.01-.12.02-.18.1-.62.35-1.18.35-1.18-.66-.27-1.56-.28-1.91-.25-3.76.27-4.63,1.82-4.63,1.82.63.41-.28,1.79.21,3.09Z"/>
            <path class="cls-13" d="m122.19,39.73s-.59,1.04-.68,1.3c0,0,.77-.03,1.08.56,0,0,.07-1.73-.4-1.87Z"/>
            <path class="cls-26" d="m126.28,47.96c1.51-.02,2.78-1.58,3.56-2.83-.17-.28-.28-.59-.31-.91-.14-1.28-.08-2.48-.1-3.22h0c-.13-.1-.26-.19-.39-.28-.19-.14-.35-.26-.47-.39-1.23,2.08-4.33,7.65-2.29,7.62Z"/>
            <path class="cls-5" d="m129.2,74.59h3.92s.09-.6-.11-1.05c-.2-.43-.5-.63-.43-1.16-.25.26-.65.54-1.22.47-.07.11-.45.71-.68.88-.26.18-1.4.12-1.48.86Z"/>
            <path class="cls-5" d="m120.79,74.59h3.92s.15-.63-.11-1.05c-.23-.38-.14-.59.03-.9-.18.07-.41.14-.66.12-.2-.01-.4-.1-.58-.21-.17.19-.89,1.01-1.12,1.17-.26.18-1.4.12-1.48.86Z"/>
            <path class="cls-29" d="m120.27,49.02l.16.61s1.96-.41,2.39-.5h0c.74-.18,1.56-.39,2.26-.62.49-.17.91-.35,1.2-.54.03-.02.05-.04.08-.06.69-.5,1.51-1.97,2.14-3.55.09-.22.17-.44.25-.65.29-.79.53-1.57.67-2.24.09-.4.15-.77.16-1.07,0-.11.01-.21,0-.3-.01-1.71-1.79-1.05-2.01-.58-.34.76-.69,1.74-1.02,2.72-.18.54-.36,1.07-.54,1.57-.1.3-.2.58-.29.84-.18.49-.35.9-.49,1.15-.09.16-.37.39-.72.65-.62.45-4.25,2.56-4.25,2.56Z"/>
            <path class="cls-13" d="m126.7,40.66c1.13-.31,2.89.52,2.89.52.47-2.48-.86-3.01-.86-3.01-.34-.14-1.62,1.58-2.03,2.5Z"/>
            <path class="cls-1" d="m124.52,31.38c0-.11.09-1.25,1.83-1.31,0,0-.86.1-1,.48,0,0,.58-.46,1.06-.32.47.15.75.98.76,1.25,0,.27-.26,1.16-.56,1.23-.11.03-.25.02-.36,0,.08.13.16.26.23.42.69,1.43-.02,2.82-.61,2.66-.38-.1-.48.54-.48.54l-3.66-2.97s1.35-2.78,2.81-2Z"/>
            <path class="cls-29" d="m126.17,38.3c-.21-.42-.58-1.02-.89-2.29l-.11.05-1.76.83s.19.57.33,1.12c.11.43.13.94.32,1.01.47.34,2.11-.27,2.11-.72Z"/>
            <path class="cls-16" d="m123.41,36.89s.19.57.33,1.12c1.03-.29,1.34-1.37,1.44-1.95l-1.77.83Z"/>
            <path class="cls-29" d="m123.19,37.5s2.47-.57,2.09-2.1-.32-2.64-1.91-2.34c-1.59.3-1.75.96-1.75,1.5,0,.54.92,3.05,1.57,2.94Z"/>
            <path class="cls-1" d="m121.48,33.69c.27-.56.58-.53.77-.43,1.16-1.07,2.3-.2,2.3-.2.44,1.06,1.39,1.49,1.39,1.49,0,0-.38.39-1.48.38-.34,0-.67-.16-.98-.37.59.6,1.29.96,1.29.96-1.38-.26-2.25-1.63-2.34-1.8-.21.11-.38.28-.49.63-.13.4-.09.74-.04,1.26,0,0-.81-1.09-.41-1.93Z"/>
          </g>
          <g>
            <g>
              <path class="cls-8" d="m118.34,49.5c-1.11.49-2.8,4.25-3.16,5.07-.37.82-3.63,1.87-4.2,1.98-.09.02-.17-.02-.23-.09-.34-.4-.25-2.04.8-3.96,1.25-2.28,6.31-4.03,6.31-4.03,0,0,.66.22.84.52.1.16.05.34-.35.52Z"/>
              <path class="cls-25" d="m118.69,48.98c-.15.04-.31.09-.49.13-5.07,1.23-7.22,7.44-7.22,7.44l-.23-.09c-.34-.4-.25-2.04.8-3.96,1.25-2.28,6.31-4.03,6.31-4.03,0,0,.66.22.84.52Z"/>
            </g>
            <g>
              <path class="cls-8" d="m120.96,48.6c-.68,1.01-.08,5.09.05,5.97.13.89-2.07,3.53-2.48,3.93-.07.06-.15.08-.24.05-.5-.16-1.31-1.59-1.45-3.77-.17-2.6,3.17-6.78,3.17-6.78,0,0,.68-.16.98-.01.17.08.22.26-.02.62Z"/>
              <path class="cls-25" d="m120.98,47.98c-.1.12-.22.24-.35.38-3.62,3.76-2.11,10.15-2.11,10.15l-.24.05c-.5-.16-1.31-1.59-1.45-3.77-.17-2.6,3.17-6.78,3.17-6.78,0,0,.68-.16.98-.01Z"/>
            </g>
            <g>
              <g>
                <path class="cls-12" d="m118.91,46.28c.07-.17-2.54-1.99-3.9-1.68-1.49.34-3.38,1.6-2.49,3.48.52,1.09,5.17.02,5.59-.36.42-.38.79-1.44.79-1.44Z"/>
                <path class="cls-12" d="m118.25,46.22s-.91-2.78.79-3.93c1.7-1.15,2.77-1.53,3.34-.94.57.59.81,1.83.28,2.61-.53.78-2.34,2.34-2.34,2.34l-2.07-.08Z"/>
                <path class="cls-12" d="m119.29,47.96c-.05.21,3.12,2.77,4.51,2.49,1.52-.31,3.3-1.76,1.97-4.26-.77-1.44-5.54-.47-5.92-.02-.38.45-.56,1.78-.56,1.78Z"/>
                <path class="cls-12" d="m120.02,47.98s.63,3.9-1.23,4.83c-1.85.92-2.99,1.05-3.51.09-.51-.96-.63-2.65,0-3.47s2.64-2.25,2.64-2.25l2.1.8Z"/>
                <rect class="cls-12" x="117.73" y="45.45" width="2.37" height="2.56" rx=".98" ry=".98" transform="translate(-8.57 55.24) rotate(-25.27)"/>
              </g>
              <path class="cls-11" d="m119.01,47.12c-.02-.07-.36-1.6.26-3.06l.15.06c-.6,1.41-.25,2.95-.25,2.96l-.16.04Z"/>
              <path class="cls-11" d="m118.8,47.13c-.53-1.41-2.13-2.61-2.14-2.63l.1-.13c.07.05,1.65,1.25,2.2,2.7l-.15.06Z"/>
              <path class="cls-11" d="m118.26,47.15c-.52-.92-1.93-1.44-1.94-1.45l.06-.15c.06.02,1.48.54,2.03,1.52l-.14.08Z"/>
              <path class="cls-11" d="m119.27,47.41c-.07-.94,1.02-2.14,1.07-2.2l.12.11s-1.1,1.2-1.03,2.07h-.16Z"/>
              <path class="cls-31" d="m116.98,44.65h0c-.07.08-.19.08-.27.01l-.19-.17c-.08-.07-.08-.19-.01-.27h0c.07-.08.19-.08.27-.01l.19.17c.08.07.08.19.01.27Z"/>
              <path class="cls-31" d="m116.7,45.75h0c-.04.1-.15.14-.25.1l-.24-.1c-.1-.04-.14-.15-.1-.25h0c.04-.1.15-.14.25-.1l.24.1c.1.04.14.15.1.25Z"/>
              <path class="cls-11" d="m119.1,47.57c-.82-.67-2.32-.63-2.34-.63v-.16c.06,0,1.58-.04,2.44.67l-.1.13Z"/>
              <path class="cls-31" d="m117.14,46.84h0c0,.11-.09.19-.2.19h-.26c-.11,0-.19-.1-.19-.2h0c0-.11.09-.19.2-.19h.26c.11,0,.19.1.19.2Z"/>
              <path class="cls-31" d="m119.43,43.87h0c.1.04.15.15.12.24l-.09.24c-.04.1-.15.15-.24.12h0c-.1-.04-.15-.15-.12-.24l.09-.24c.04-.1.15-.15.24-.12Z"/>
              <path class="cls-31" d="m120.61,45.03h0c.08.07.09.19.02.27l-.17.2c-.07.08-.19.09-.27.02h0c-.08-.07-.09-.19-.02-.27l.17-.2c.07-.08.19-.09.27-.02Z"/>
              <path class="cls-11" d="m119.53,47.03c.08.17-.03.4-.25.5-.22.1-.47.05-.55-.13-.08-.17.03-.4.25-.5.22-.1.47-.05.55.13Z"/>
            </g>
          </g>
        </g>
      </g>
      <rect class="cls-14" x="20.33" y="74.55" width="132.12" height=".55" rx=".19" ry=".19"/>
      <g>
        <g>
          <path class="cls-27" d="m106.41,73.31h0c-.75.05-1.41-.52-1.46-1.27l-.79-11.53c-.05-.75.52-1.41,1.27-1.46h0c.75-.05,1.41.52,1.46,1.27l.79,11.53c.05.75-.52,1.41-1.27,1.46Z"/>
          <path class="cls-27" d="m106.49,74.54h0c-.29.02-.54-.2-.56-.49l-.06-.9c-.02-.29.2-.54.49-.56h0c.29-.02.54.2.56.49l.06.9c.02.29-.2.54-.49.56Z"/>
        </g>
        <path class="cls-6" d="m106.4,73.02c-.59.04-1.1-.41-1.14-.99l-.15-2.18c.4.06.84.16,1.3.12.33-.03.62.02.86.1l.12,1.81c.04.59-.41,1.1-.99,1.14Z"/>
        <path class="cls-6" d="m106.47,74.2h0c-.15.01-.28-.1-.3-.26l-.08-1.15c-.01-.15.1-.28.26-.3h0c.15-.01.28.1.3.26l.08,1.15c.01.15-.1.28-.26.3Z"/>
        <path class="cls-6" d="m105.48,59.73h0c-.87.06-1.64-.61-1.7-1.48l-.38-5.63c-.06-.87.61-1.64,1.48-1.7h0c.87-.06,1.64.61,1.7,1.48l.38,5.63c.06.87-.61,1.64-1.48,1.7Z"/>
        <rect class="cls-26" x="102.08" y="56.58" width="6.61" height="4.94" rx=".29" ry=".29" transform="translate(-3.78 7.32) rotate(-3.91)"/>
      </g>
      <path class="cls-30" d="m116.34,64.16v8.85c0,.88-.71,1.59-1.59,1.59h-4.26c-.88,0-1.59-.71-1.59-1.59v-8.85c0-.44.18-.84.47-1.13.29-.29.69-.47,1.13-.47.18,0,.34-.12.39-.29.01-.04.02-.08.02-.12v-.83s0-.08.02-.11c.04-.12.16-.21.3-.21h2.84c.05,0,.1.02.15.04.08.05.13.13.13.23v.88c0,.23.18.41.41.41.88,0,1.59.71,1.59,1.59Z"/>
      <path class="cls-17" d="m116.34,64.16v8.85c0,.88-.71,1.59-1.59,1.59h-3.17c-.88,0-1.59-.71-1.59-1.59v-8.85c0-.44.18-.84.47-1.13.29-.29.69-.47,1.13-.47.18,0,.34-.12.39-.29.01-.04.02-.08.02-.12v-.83s0-.08.02-.11c.04-.12.16-.21.3-.21h1.75c.05,0,.1.02.15.04.08.05.13.13.13.23v.88c0,.23.18.41.41.41.88,0,1.59.71,1.59,1.59Z"/>
      <g>
        <g>
          <path class="cls-8" d="m114.23,72.83c.61,0,2.17,1.37,2.51,1.67.34.3,2.06.1,2.35.04.05-.01.07-.04.09-.09.07-.26-.31-.99-1.19-1.66-1.05-.79-3.74-.54-3.74-.54,0,0-.26.24-.28.41-.01.09.05.17.27.16Z"/>
          <path class="cls-25" d="m113.96,72.67c.08-.01.16-.02.25-.04,2.59-.49,4.87,1.92,4.87,1.92l.09-.09c.07-.26-.31-.99-1.19-1.66-1.05-.79-3.74-.54-3.74-.54,0,0-.26.24-.28.41Z"/>
        </g>
        <g>
          <path class="cls-8" d="m113.48,72.66c-.47-.13-1.95.63-2.27.8-.32.17-1.61-.33-1.82-.43-.03-.02-.05-.05-.05-.09,0-.21.43-.71,1.25-1.05.97-.4,3,.32,3,.32,0,0,.15.24.13.37,0,.08-.07.12-.24.07Z"/>
          <path class="cls-25" d="m113.72,72.59c-.06-.02-.12-.05-.19-.08-1.91-.89-4.14.52-4.14.52l-.05-.09c0-.21.43-.71,1.25-1.05.97-.4,3,.32,3,.32,0,0,.15.24.13.37Z"/>
        </g>
        <g>
          <path class="cls-8" d="m113.45,72.29c-.29-.4-1.91-.74-2.27-.81-.35-.07-1.05-1.27-1.14-1.48-.01-.03,0-.07.02-.1.13-.17.78-.27,1.63-.03,1.01.29,2.13,2.14,2.13,2.14,0,0-.03.28-.13.37-.05.05-.13.05-.23-.09Z"/>
          <path class="cls-25" d="m113.69,72.39c-.03-.05-.06-.12-.09-.18-.92-1.89-3.55-2.2-3.55-2.2l.02-.1c.13-.17.78-.27,1.63-.03,1.01.29,2.13,2.14,2.13,2.14,0,0-.03.28-.13.37Z"/>
        </g>
        <g>
          <path class="cls-10" d="m114.43,71.74c-.07-.06.75-1.45,1.44-1.59.75-.15,1.89.03,1.87,1.08,0,.61-2.37,1.09-2.65,1-.27-.09-.67-.5-.67-.5Z"/>
          <path class="cls-10" d="m114.72,71.58s-.16-1.47-1.18-1.65c-1.02-.18-1.6-.13-1.73.26-.14.39,0,1.01.41,1.26.41.25,1.57.59,1.57.59l.93-.47Z"/>
          <path class="cls-10" d="m114.6,72.6c.07.09-.86,1.93-1.56,2.09-.76.18-1.89-.12-1.79-1.55.05-.83,2.45-1.37,2.72-1.24.27.13.63.7.63.7Z"/>
          <path class="cls-10" d="m114.27,72.76s.53,1.93,1.57,1.96c1.05.04,1.6-.14,1.63-.69.04-.55-.26-1.35-.72-1.6s-1.68-.48-1.68-.48l-.8.81Z"/>
          <rect class="cls-10" x="113.92" y="71.3" width="1.2" height="1.3" rx=".5" ry=".5" transform="translate(227.89 145.69) rotate(-179.1)"/>
          <path class="cls-27" d="m114.47,72.17s-.16-.79-.73-1.31l.06-.06c.59.54.75,1.32.76,1.36l-.08.02Z"/>
          <path class="cls-27" d="m114.57,72.12c-.05-.78.43-1.66.45-1.7l.07.04s-.49.9-.44,1.66h-.08Z"/>
          <path class="cls-27" d="m114.91,72.01h-.08c.05-.57.59-1.11.62-1.13l.06.06s-.55.54-.59,1.07Z"/>
          <path class="cls-27" d="m114.42,72.37c-.15-.42-.9-.74-.9-.74l.03-.08s.79.34.95.79l-.08.03Z"/>
          <path class="cls-31" d="m114.98,70.59h0s.11,0,.13-.05l.05-.12s0-.11-.05-.13h0s-.11,0-.13.05l-.05.12s0,.11.05.13Z"/>
          <path class="cls-31" d="m115.33,71.04h0s.1.03.14,0l.09-.1s.03-.1,0-.14h0s-.1-.03-.14,0l-.09.1s-.03.1,0,.14Z"/>
          <path class="cls-27" d="m114.61,72.37l-.07-.04c.25-.51.96-.81.99-.82l.03.08s-.71.3-.94.78Z"/>
          <path class="cls-31" d="m115.36,71.63h0s.08.07.13.05l.12-.06s.07-.08.05-.13h0s-.08-.07-.13-.05l-.12.06s-.07.08-.05.13Z"/>
          <path class="cls-31" d="m113.69,70.74h0s-.04.1,0,.14l.09.09s.1.04.14,0h0s.04-.1,0-.14l-.09-.09s-.1-.04-.14,0Z"/>
          <path class="cls-31" d="m113.38,71.52h0s0,.11.05.13l.12.05s.11,0,.13-.05h0s0-.11-.05-.13l-.12-.05s-.11,0-.13.05Z"/>
          <path class="cls-27" d="m114.3,72.22c0,.1.1.18.22.18.12,0,.23-.08.23-.17,0-.1-.1-.18-.22-.18-.12,0-.23.08-.23.17Z"/>
        </g>
      </g>
    </g>
    <text class="cls-22" transform="translate(163.5 30.63)"><tspan x="0" y="0" xml:space="preserve">  혼자서 잘 모르겠다면?</tspan><tspan x="0" y="20.16">조향사와 상담하기</tspan></text>
    <text class="cls-23" transform="translate(302.39 70.11)"><tspan x="0" y="0">바로가기 ▶</tspan></text>
  </g>
</svg>