<?xml version="1.0" encoding="UTF-8"?>
<svg id="_레이어_2" data-name="레이어 2" xmlns="http://www.w3.org/2000/svg" viewBox="0 0 25.69 31.09">
  <defs>
    <style>
      .cls-1 {
        fill: #9055a2;
      }
    </style>
  </defs>
  <g id="_레이어_1-2" data-name="레이어 1">
    <path class="cls-1" d="m3.21,31.09c-.88,0-1.64-.3-2.27-.91s-.94-1.34-.94-2.2V9.33c0-.85.31-1.59.94-2.2s1.39-.91,2.27-.91h3.21c0-1.71.63-3.17,1.89-4.39,1.26-1.22,2.77-1.83,4.54-1.83s3.28.61,4.54,1.83c1.26,1.22,1.89,2.68,1.89,4.39h3.21c.88,0,1.64.3,2.27.91s.94,1.34.94,2.2v18.65c0,.85-.31,1.59-.94,2.2s-1.39.91-2.27.91H3.21Zm0-3.11h19.27V9.33h-3.21v3.11c0,.44-.15.81-.46,1.11s-.69.45-1.14.45-.84-.15-1.14-.45-.46-.67-.46-1.11v-3.11h-6.42v3.11c0,.44-.15.81-.46,1.11s-.69.45-1.14.45-.84-.15-1.14-.45-.46-.67-.46-1.11v-3.11h-3.21v18.65ZM9.64,6.22h6.42c0-.85-.31-1.59-.94-2.2-.63-.61-1.39-.91-2.27-.91s-1.64.3-2.27.91c-.63.61-.94,1.34-.94,2.2ZM3.21,27.98V9.33v18.65Z"/>
  </g>
</svg>