<?xml version="1.0" encoding="UTF-8"?>
<svg id="_레이어_2" data-name="레이어 2" xmlns="http://www.w3.org/2000/svg" viewBox="0 0 35.58 25.69">
  <defs>
    <style>
      .cls-1 {
        fill: #9055a2;
      }
    </style>
  </defs>
  <g id="_레이어_1-2" data-name="레이어 1">
    <path class="cls-1" d="m8.09,25.69c-1.35,0-2.49-.47-3.44-1.41s-1.41-2.07-1.41-3.41H0V3.21c0-.88.32-1.64.95-2.27.63-.63,1.39-.94,2.28-.94h22.64v6.42h4.85l4.85,6.42v8.03h-3.23c0,1.34-.47,2.48-1.41,3.41s-2.09,1.41-3.44,1.41-2.49-.47-3.44-1.41c-.94-.94-1.41-2.07-1.41-3.41h-9.7c0,1.34-.47,2.48-1.41,3.41-.94.94-2.09,1.41-3.44,1.41Zm0-3.21c.46,0,.84-.15,1.15-.46.31-.31.46-.69.46-1.14s-.15-.84-.46-1.14-.69-.46-1.15-.46-.84.15-1.15.46-.46.69-.46,1.14.15.84.46,1.14c.31.31.69.46,1.15.46Zm-4.85-4.82h1.29c.46-.48.98-.87,1.58-1.16s1.25-.44,1.98-.44,1.39.15,1.98.44,1.12.68,1.58,1.16h11V3.21H3.23v14.45Zm24.26,4.82c.46,0,.84-.15,1.15-.46.31-.31.46-.69.46-1.14s-.15-.84-.46-1.14-.69-.46-1.15-.46-.84.15-1.15.46-.46.69-.46,1.14.15.84.46,1.14c.31.31.69.46,1.15.46Zm-1.62-8.03h6.87l-3.64-4.82h-3.23v4.82Z"/>
  </g>
</svg>