<?xml version="1.0" encoding="UTF-8"?>
<svg id="_레이어_2" data-name="레이어 2" xmlns="http://www.w3.org/2000/svg" viewBox="0 0 25.69 25.69">
  <defs>
    <style>
      .cls-1 {
        fill: #9055a2;
      }
    </style>
  </defs>
  <g id="_레이어_1-2" data-name="레이어 1">
    <path class="cls-1" d="m23.7,25.69l-8.99-8.99c-.71.57-1.53,1.02-2.46,1.36s-1.92.5-2.96.5c-2.59,0-4.79-.9-6.58-2.69S0,11.87,0,9.28.9,4.49,2.69,2.69,6.69,0,9.28,0s4.79.9,6.58,2.69,2.69,3.99,2.69,6.58c0,1.05-.17,2.03-.5,2.96s-.79,1.75-1.36,2.46l8.99,8.99-2,2Zm-14.42-9.99c1.78,0,3.3-.62,4.55-1.87s1.87-2.77,1.87-4.55-.62-3.3-1.87-4.55-2.77-1.87-4.55-1.87-3.3.62-4.55,1.87-1.87,2.77-1.87,4.55.62,3.3,1.87,4.55,2.77,1.87,4.55,1.87Z"/>
  </g>
</svg>